<svg xmlns="http://www.w3.org/2000/svg" viewBox="0 0 48 48" width="20" height="20"><g><path fill="#4285F4" d="M44.5 20H24v8.5h11.7C34.6 33.9 30.1 37 24 37c-7.2 0-13-5.8-13-13s5.8-13 13-13c3.1 0 5.9 1.1 8.1 2.9l6.4-6.4C34.2 4.5 29.4 2.5 24 2.5 12.6 2.5 3.5 11.6 3.5 23S12.6 43.5 24 43.5c10.7 0 20-8.2 20-20 0-1.3-.1-2.7-.3-4z"/><path fill="#34A853" d="M6.3 14.1l7 5.1C15.2 16.1 19.2 13 24 13c3.1 0 5.9 1.1 8.1 2.9l6.4-6.4C34.2 4.5 29.4 2.5 24 2.5 16.2 2.5 9.1 7.2 6.3 14.1z"/><path fill="#FBBC05" d="M24 43.5c6.1 0 11.3-2 15.1-5.5l-7-5.7C29.9 35.2 27.1 36.5 24 36.5c-6.1 0-11.3-4.1-13.1-9.6l-7 5.4C9.1 40.8 16.2 43.5 24 43.5z"/><path fill="#EA4335" d="M44.5 20H24v8.5h11.7c-1.3 3.4-4.6 7-11.7 7-7.2 0-13-5.8-13-13s5.8-13 13-13c3.1 0 5.9 1.1 8.1 2.9l6.4-6.4C34.2 4.5 29.4 2.5 24 2.5 12.6 2.5 3.5 11.6 3.5 23S12.6 43.5 24 43.5c10.7 0 20-8.2 20-20 0-1.3-.1-2.7-.3-4z"/></g></svg>
