<svg xmlns="http://www.w3.org/2000/svg" xmlns:xlink="http://www.w3.org/1999/xlink" width="378" height="378" viewBox="0 0 378 378">
  <defs>
    <filter id="Ellipse_242" x="0" y="0" width="378" height="378" filterUnits="userSpaceOnUse">
      <feOffset dy="6" input="SourceAlpha"/>
      <feGaussianBlur stdDeviation="3" result="blur"/>
      <feFlood flood-opacity="0.161"/>
      <feComposite operator="in" in2="blur"/>
      <feComposite in="SourceGraphic"/>
    </filter>
    <radialGradient id="radial-gradient" cx="0.5" cy="0.5" r="0.5" gradientUnits="objectBoundingBox">
      <stop offset="0" stop-color="#fff"/>
      <stop offset="1" stop-color="#fff"/>
    </radialGradient>
  </defs>
  <g id="Group_1521" data-name="Group 1521" transform="translate(9 3)">
    <g transform="matrix(1, 0, 0, 1, -9, -3)" filter="url(#Ellipse_242)">
      <g id="Ellipse_242-2" data-name="Ellipse 242" transform="translate(9 3)" fill="#000aa5" stroke="#fff" stroke-width="12">
        <circle cx="180" cy="180" r="180" stroke="none"/>
        <circle cx="180" cy="180" r="174" fill="none"/>
      </g>
    </g>
    <path id="Exclusion_4" data-name="Exclusion 4" d="M119.985,240A119.969,119.969,0,0,1,35.149,35.149,120,120,0,1,1,166.7,230.568,119.274,119.274,0,0,1,119.985,240ZM84.829,174.863v0c8.392,21.627,21.207,34.034,35.156,34.034,13.972,0,26.8-12.407,35.186-34.037.748.06,1.52.144,2.261.227l.189.015.083.008a43.36,43.36,0,0,0,4.491.333c7.644,0,14.289-1.145,19.74-3.4a25.319,25.319,0,0,0,12.543-10.316c3.5-5.8,4.226-13.027,2.124-20.9-1.746-6.532-5.474-13.533-11.084-20.81,5.617-7.307,9.345-14.316,11.084-20.833,2.1-7.87,1.384-15.1-2.1-20.909-2.669-4.487-6.888-7.942-12.528-10.271-5.428-2.245-12.067-3.387-19.7-3.387-2.336,0-4.748.106-7.175.318-8.392-21.5-21.192-33.829-35.118-33.829-13.911,0-26.7,12.331-35.066,33.829-2.419-.212-4.831-.318-7.182-.318-7.636,0-14.274,1.142-19.7,3.387-5.648,2.332-9.859,5.788-12.52,10.271-3.493,5.8-4.226,13.027-2.117,20.909,1.731,6.5,5.459,13.514,11.076,20.833-5.6,7.269-9.322,14.27-11.076,20.81-2.1,7.859-1.384,15.091,2.087,20.9a25.437,25.437,0,0,0,12.566,10.316c5.459,2.257,12.112,3.4,19.756,3.4a43.514,43.514,0,0,0,4.491-.333l.083-.008.151-.015c.756-.079,1.542-.166,2.3-.227Zm35.156,22.908c-8.4,0-17.283-9.148-23.747-24.469a139.183,139.183,0,0,0,23.747-7.05,141.108,141.108,0,0,0,23.755,7.05C137.268,188.627,128.392,197.771,119.985,197.771Zm42.324-33.451c-1.149,0-2.329-.03-3.614-.094a152.755,152.755,0,0,0,4.385-22.19A136.24,136.24,0,0,0,178.1,128.668c3.931,5.455,6.547,10.517,7.772,15.045,1.331,4.929,1.013,9.073-.915,12.32C181.762,161.375,173.71,164.32,162.308,164.32Zm-84.632,0c-11.4,0-19.438-2.945-22.644-8.286-1.92-3.24-2.238-7.383-.907-12.32,1.225-4.51,3.826-9.568,7.742-15.045A138.859,138.859,0,0,0,76.92,142.035a149.344,149.344,0,0,0,4.355,22.19C80.005,164.289,78.788,164.32,77.676,164.32Zm69.791-1.452h0a118.949,118.949,0,0,1-12.951-3.172c.764-.386,1.55-.752,2.291-1.1l.348-.159c1.338-.624,2.865-1.334,4.317-2.143,3.243-1.8,6.336-3.739,8.982-5.413-.824,4.151-1.83,8.18-2.986,11.987Zm-54.965,0v0c-1.172-3.92-2.17-7.95-2.956-11.987,2.813,1.78,5.806,3.663,8.952,5.413,1.361.741,2.714,1.376,4.03,1.992l.219.1c.885.408,1.822.847,2.752,1.312a119.785,119.785,0,0,1-13,3.172Zm27.513-8.445h0a166.133,166.133,0,0,1-16.1-7.84,168.026,168.026,0,0,1-16.52-10.588c-.507-5.6-.748-10.827-.748-15.983,0-5.209.249-10.441.748-16.006a167.166,167.166,0,0,1,16.52-10.592,169.3,169.3,0,0,1,16.074-7.863,165.459,165.459,0,0,1,16.1,7.863,171.322,171.322,0,0,1,16.52,10.592c.491,5.341.748,10.725.748,16.006s-.257,10.664-.748,15.983a172.02,172.02,0,0,1-16.52,10.588,166.091,166.091,0,0,1-16.066,7.84Zm-.03-53.868a19.446,19.446,0,1,0,19.453,19.457A19.468,19.468,0,0,0,119.985,100.554Zm0,27.789a8.343,8.343,0,1,1,8.354-8.332A8.345,8.345,0,0,1,119.985,128.343ZM164.3,126.5v-.011c.008-.446.023-.888.038-1.334v-.026c.06-1.482.121-3.327.121-5.115,0-1.811-.06-3.667-.121-5.16-.015-.45-.03-.9-.038-1.35,2.412,2.177,4.642,4.37,6.646,6.51-2.064,2.185-4.294,4.362-6.638,6.479Zm-88.594,0-.008-.008c-2.419-2.189-4.65-4.37-6.638-6.479,2.072-2.219,4.3-4.4,6.646-6.51l-.038,1.346c-.06,1.493-.129,3.349-.129,5.164,0,1.784.068,3.633.129,5.118.015.454.03.9.038,1.357Zm102.4-15.166v0A136.009,136.009,0,0,0,163.08,97.961a153.531,153.531,0,0,0-4.37-22.16c.257-.015.514-.03.764-.049l.144-.008c.907-.053,1.852-.11,2.714-.11,11.363,0,19.4,2.96,22.629,8.328,1.928,3.247,2.245,7.394.915,12.32-1.225,4.533-3.841,9.594-7.772,15.045Zm-116.235,0v0c-3.916-5.451-6.517-10.513-7.742-15.045-1.331-4.933-1.013-9.08.907-12.32,3.206-5.368,11.242-8.328,22.636-8.328.854,0,1.807.057,2.722.11l.113.008c.265.019.522.034.771.049a148.426,148.426,0,0,0-4.355,22.16,139.084,139.084,0,0,0-15.053,13.367ZM89.546,89.123v-.011c.628-3.266,1.958-8.645,2.956-11.983A120.189,120.189,0,0,1,105.2,80.209c-1.966.99-4.294,2.17-6.7,3.5-3.145,1.754-6.139,3.633-8.944,5.406Zm60.907,0-.008-.008c-2.8-1.773-5.829-3.663-8.974-5.406-2.245-1.259-4.551-2.427-6.691-3.5a120.564,120.564,0,0,1,12.686-3.081c.99,3.2,2.329,8.574,2.986,11.983ZM119.985,73.582h0a140.94,140.94,0,0,0-23.679-7.069c6.464-15.212,15.318-24.288,23.679-24.288S137.2,51.3,143.664,66.513a141.646,141.646,0,0,0-23.679,7.069Z" transform="translate(60 60)" fill="url(#radial-gradient)"/>
  </g>
</svg>
